<?xml version="1.0"?>
<svg version="1.1" xmlns="http://www.w3.org/2000/svg" xmlns:xlink="http://www.w3.org/1999/xlink" width="118" height="118">
    <desc iVinci="yes" version="4.6" gridStep="20" showGrid="no" snapToGrid="no" codePlatform="0"/>
    <g id="Layer1" name="Layer 1" opacity="1">
        <g id="Shape1">
            <desc shapeID="1" type="2" basicInfo-basicType="0" basicInfo-roundedRectRadius="12" basicInfo-polygonSides="6" basicInfo-starPoints="5" bounding="rect(-59,-59,118,118)" text="闲想录" font-familyName="Arial Black" font-pixelSize="33" font-bold="0" font-underline="0" font-alignment="1" strokeStyle="0" markerStart="0" markerEnd="0" shadowEnabled="0" shadowOffsetX="0" shadowOffsetY="2" shadowBlur="4" shadowOpacity="160" blurEnabled="0" blurRadius="4" transform="matrix(1,0,0,1,58.6205,58.6665)" pers-center="0,0" pers-size="0,0" pers-start="0,0" pers-end="0,0" locked="0" mesh="" flag=""/>
            <path id="shapePath1" d="M17.5685,54.479 L17.5685,57.581 L23.1455,57.581 C21.3635,61.013 18.9875,63.785 15.9845,65.864 L18.0305,69.164 C20.4065,66.953 22.4525,64.082 24.2015,60.551 L24.2015,72.563 L27.3695,72.563 L27.3695,62.168 C29.5475,64.148 31.3295,66.062 32.7155,67.91 L34.9595,65.633 C32.9135,63.257 30.3725,60.848 27.3695,58.439 L27.3695,57.581 L33.6395,57.581 L33.6395,54.479 L27.3695,54.479 L27.3695,49.826 L24.2015,49.826 L24.2015,54.479 L17.5685,54.479 M35.4215,74.147 C37.9955,74.147 39.2825,72.86 39.2825,70.352 L39.2825,45.305 L23.7395,45.305 L23.7395,48.341 L36.0485,48.341 L36.0485,69.428 C36.0485,70.55 35.5865,71.144 34.7285,71.144 L31.8905,71.045 L32.7485,74.147 L35.4215,74.147 M11.9255,49.364 L11.9255,74.444 L15.1595,74.444 L15.1595,49.364 L11.9255,49.364 M17.5025,43.556 L14.5985,44.876 C15.8525,46.328 16.9745,48.011 18.0305,49.892 L20.8355,48.44 C19.8455,46.658 18.7565,45.008 17.5025,43.556 M57.9605,44.876 L57.9605,62.135 L71.6555,62.135 L71.6555,44.876 L57.9605,44.876 M68.3225,59.165 L61.3265,59.165 L61.3265,57.218 L68.3225,57.218 L68.3225,59.165 M61.3265,54.446 L61.3265,52.598 L68.3225,52.598 L68.3225,54.446 L61.3265,54.446 M61.3265,49.826 L61.3265,47.912 L68.3225,47.912 L68.3225,49.826 L61.3265,49.826 M52.3835,54.776 C53.2085,55.634 54.1985,56.756 55.3205,58.109 L57.2675,55.205 C55.6175,53.918 54.0005,52.763 52.3835,51.74 L52.3835,50.75 L56.2775,50.75 L56.2775,47.582 L52.3835,47.582 L52.3835,44.282 L48.9185,44.282 L48.9185,47.582 L43.8695,47.582 L43.8695,50.75 L48.7865,50.75 C47.4005,53.357 45.5195,55.634 43.2095,57.614 L44.4635,60.881 C46.1795,59.033 47.6645,57.02 48.9185,54.875 L48.9185,62.366 L52.3835,62.366 L52.3835,54.776 M46.3115,63.95 C45.7835,66.491 44.8265,68.867 43.4735,71.111 L46.4435,72.992 C47.8295,70.649 48.9185,67.877 49.7105,64.709 L46.3115,63.95 M63.4055,73.718 C64.6925,73.718 65.6495,73.454 66.2765,72.959 C66.9695,72.431 67.4315,70.715 67.6955,67.877 L64.4285,66.755 C64.3295,68.504 64.1315,69.56 63.8675,69.89 C63.6035,70.22 63.2735,70.385 62.8115,70.385 L55.9145,70.385 C55.0565,70.385 54.6275,69.989 54.6275,69.197 L54.6275,63.653 L51.1295,63.653 L51.1295,69.923 C51.1295,72.431 52.3505,73.718 54.8585,73.718 L63.4055,73.718 M58.9505,62.828 L56.2775,64.511 C57.6635,66.095 58.7855,67.547 59.6435,68.867 L62.3825,66.953 C61.5905,65.798 60.4355,64.412 58.9505,62.828 M69.1805,62.894 L66.3755,64.643 C68.3885,67.415 70.0055,69.89 71.1935,72.134 L74.1305,70.088 C72.9755,68.042 71.3255,65.633 69.1805,62.894 M80.6645,44.843 L80.6645,47.945 L96.8345,47.945 L96.8345,50.255 L81.7865,50.255 L81.7865,53.225 L96.8345,53.225 L96.8345,55.502 L77.3645,55.502 L77.3645,58.637 L89.7065,58.637 L89.7065,62.267 C86.0765,65.369 81.8195,68.009 76.8695,70.253 L78.2555,73.454 C82.6445,71.177 86.4725,68.636 89.7065,65.798 L89.7065,70.121 C89.7065,70.979 89.4425,71.441 88.9475,71.441 C87.8255,71.441 86.6705,71.342 85.4825,71.21 L86.2415,74.444 L90.1025,74.444 C92.1155,74.444 93.1385,73.256 93.1385,70.946 L93.1385,65.666 C95.9765,68.735 99.7055,71.342 104.326,73.52 L106.075,70.484 C102.84,69.098 100.003,67.547 97.5605,65.765 C99.7385,64.577 101.686,62.894 103.402,60.782 L100.795,58.637 L105.91,58.637 L105.91,55.502 L100.333,55.502 L100.333,44.843 L80.6645,44.843 M81.4895,59.132 L79.2125,61.31 C81.3245,62.762 82.9415,64.082 84.0965,65.336 L86.3405,63.092 C85.0205,61.772 83.4035,60.452 81.4895,59.132 M100.729,58.637 C99.1775,60.881 97.3295,62.63 95.2175,63.884 C94.4585,63.224 93.7655,62.564 93.1385,61.871 L93.1385,58.637 L100.729,58.637 Z" style="stroke:none;fill-rule:nonzero;fill:#ffffff;fill-opacity:1;"/>
        </g>
        <g id="Shape2">
            <desc shapeID="2" type="2" basicInfo-basicType="0" basicInfo-roundedRectRadius="12" basicInfo-polygonSides="6" basicInfo-starPoints="5" bounding="rect(-53.5,-6,107,12)" text="源于技术不止于技术" font-familyName="Apple Braille" font-pixelSize="9" font-bold="0" font-underline="0" font-alignment="1" strokeStyle="0" markerStart="0" markerEnd="0" shadowEnabled="0" shadowOffsetX="0" shadowOffsetY="2" shadowBlur="4" shadowOpacity="160" blurEnabled="0" blurRadius="4" transform="matrix(1,0,0,1,56.4455,89.5)" pers-center="0,0" pers-size="0,0" pers-start="0,0" pers-end="0,0" locked="0" mesh="" flag=""/>
            <path id="shapePath2" d="M16.9805,84.8583 L16.5395,85.2812 C17.2235,85.7763 17.7635,86.2442 18.1595,86.6762 L18.6005,86.2353 C18.1595,85.7852 17.6195,85.3262 16.9805,84.8583 M16.8185,87.0632 L16.3775,87.4863 C17.0255,87.9632 17.5205,88.4133 17.8805,88.8363 L18.3215,88.3952 C17.9165,87.9542 17.4125,87.5133 16.8185,87.0632 M17.8625,89.4932 C17.4755,90.5642 17.0165,91.6083 16.4765,92.6342 L17.0795,92.9043 C17.5745,91.9053 18.0245,90.8432 18.4205,89.7093 L17.8625,89.4932 M20.2745,86.4693 L20.2745,89.6283 L21.8135,89.6283 L21.8135,92.0222 C21.8135,92.2473 21.7055,92.3643 21.5075,92.3643 C21.2915,92.3643 21.0665,92.3463 20.8325,92.3193 L20.9675,92.9043 L21.7235,92.9043 C22.1915,92.9043 22.4345,92.6612 22.4345,92.1752 L22.4345,89.6283 L23.9285,89.6283 L23.9285,86.4693 L22.1735,86.4693 C22.2725,86.1992 22.3535,85.9202 22.4165,85.6233 L24.4055,85.6233 L24.4055,85.0383 L19.0055,85.0383 L19.0055,88.2422 C18.9785,90.0602 18.6815,91.4733 18.1235,92.4902 L18.6095,92.9222 C19.2575,91.7523 19.5995,90.1862 19.6355,88.2422 L19.6355,85.6233 L21.8045,85.6233 C21.7415,85.9112 21.6605,86.1902 21.5525,86.4693 L20.2745,86.4693 M23.3525,89.1062 L20.8505,89.1062 L20.8505,88.2962 L23.3525,88.2962 L23.3525,89.1062 M20.8505,87.8102 L20.8505,86.9822 L23.3525,86.9822 L23.3525,87.8102 L20.8505,87.8102 M20.4995,90.2673 C20.3105,90.9512 20.0045,91.5723 19.5815,92.1393 L20.1035,92.4632 C20.5175,91.8783 20.8415,91.1852 21.0755,90.3932 L20.4995,90.2673 M23.5595,90.2223 L23.0195,90.4112 C23.3615,91.0052 23.6855,91.6803 23.9735,92.4542 L24.5225,92.2113 C24.2525,91.5092 23.9285,90.8432 23.5595,90.2223 M26.0345,85.0293 L26.0345,85.6592 L29.1935,85.6592 L29.1935,88.1072 L25.4675,88.1072 L25.4675,88.7552 L29.1935,88.7552 L29.1935,91.7883 C29.1935,92.0943 29.0315,92.2473 28.7165,92.2473 C28.3025,92.2473 27.8615,92.2292 27.4025,92.2113 L27.5375,92.8323 L28.9415,92.8323 C29.5445,92.8323 29.8505,92.5352 29.8505,91.9502 L29.8505,88.7552 L33.4235,88.7552 L33.4235,88.1072 L29.8505,88.1072 L29.8505,85.6592 L32.7935,85.6592 L32.7935,85.0293 L26.0345,85.0293 M35.3675,92.8323 C35.8895,92.8323 36.1505,92.5622 36.1505,92.0222 L36.1505,89.4392 C36.4745,89.2862 36.7985,89.1243 37.1225,88.9443 L37.1225,88.3142 C36.8075,88.4942 36.4835,88.6562 36.1505,88.8183 L36.1505,86.9553 L37.1045,86.9553 L37.1045,86.3343 L36.1505,86.3343 L36.1505,84.6872 L35.5205,84.6872 L35.5205,86.3343 L34.4315,86.3343 L34.4315,86.9553 L35.5205,86.9553 L35.5205,89.0792 C35.1065,89.2322 34.6925,89.3672 34.2605,89.4753 L34.4225,90.1143 C34.8005,89.9883 35.1605,89.8532 35.5205,89.7093 L35.5205,91.8603 C35.5205,92.1302 35.3945,92.2653 35.1515,92.2653 C34.9355,92.2653 34.7105,92.2473 34.4765,92.2203 L34.6115,92.8323 L35.3675,92.8323 M37.4285,85.9833 L37.4285,86.6042 L39.5885,86.6042 L39.5885,88.0713 L37.5995,88.0713 L37.5995,88.6833 L38.0765,88.6833 C38.3285,89.6103 38.8235,90.4382 39.5795,91.1762 C38.9225,91.6892 38.1125,92.1032 37.1585,92.4183 L37.4645,92.9583 C38.4725,92.5983 39.3275,92.1393 40.0295,91.5813 C40.6415,92.0853 41.4065,92.5443 42.3065,92.9402 L42.6485,92.4003 C41.7935,92.0492 41.0645,91.6442 40.4705,91.1852 C41.1995,90.4833 41.7215,89.6373 42.0365,88.6472 L42.0365,88.0713 L40.2185,88.0713 L40.2185,86.6042 L42.3875,86.6042 L42.3875,85.9833 L40.2185,85.9833 L40.2185,84.7052 L39.5885,84.7052 L39.5885,85.9833 L37.4285,85.9833 M38.6795,88.6833 L41.3885,88.6833 C41.0915,89.4932 40.6325,90.1953 40.0115,90.7982 C39.3635,90.1773 38.9135,89.4753 38.6795,88.6833 M43.6295,86.8112 L43.6295,87.4323 L46.4735,87.4323 C45.8345,89.0703 44.7815,90.4112 43.3235,91.4553 L43.6745,92.0312 C45.2765,90.8432 46.4195,89.3043 47.0855,87.4323 L47.1215,87.4323 L47.1215,92.9133 L47.7695,92.9133 L47.7695,87.4323 L47.8055,87.4323 C48.4175,89.1062 49.5155,90.6273 51.0995,91.9772 L51.5315,91.4283 C50.0465,90.2582 49.0115,88.9262 48.4175,87.4323 L51.2705,87.4323 L51.2705,86.8112 L47.7695,86.8112 L47.7695,84.6602 L47.1215,84.6602 L47.1215,86.8112 L43.6295,86.8112 M49.2185,84.6783 L48.7145,84.9932 C49.2365,85.5423 49.6415,86.0462 49.9475,86.5052 L50.4605,86.1363 C50.1725,85.7223 49.7585,85.2363 49.2185,84.6783 M52.6205,85.1462 L52.6205,85.7852 L56.6165,85.7852 C55.8245,87.4593 54.4025,88.8812 52.3685,90.0512 L52.7915,90.6182 C54.1595,89.7992 55.2665,88.8633 56.1125,87.8102 L56.1125,92.9492 L56.7785,92.9492 L56.7785,86.8562 C56.9855,86.5143 57.1745,86.1543 57.3365,85.7852 L60.2705,85.7852 L60.2705,85.1462 L52.6205,85.1462 M57.9125,87.5673 L57.4445,88.0082 C58.5335,88.8992 59.3885,89.7363 60.0185,90.5283 L60.5135,90.0242 C59.8115,89.2053 58.9475,88.3863 57.9125,87.5673 M65.5085,84.7233 L65.5085,91.9143 L63.6275,91.9143 L63.6275,86.2982 L62.9795,86.2982 L62.9795,91.9143 L61.4495,91.9143 L61.4495,92.5443 L69.4415,92.5443 L69.4415,91.9143 L66.1745,91.9143 L66.1745,88.2783 L68.9465,88.2783 L68.9465,87.6482 L66.1745,87.6482 L66.1745,84.7233 L65.5085,84.7233 M71.0345,85.0293 L71.0345,85.6592 L74.1935,85.6592 L74.1935,88.1072 L70.4675,88.1072 L70.4675,88.7552 L74.1935,88.7552 L74.1935,91.7883 C74.1935,92.0943 74.0315,92.2473 73.7165,92.2473 C73.3025,92.2473 72.8615,92.2292 72.4025,92.2113 L72.5375,92.8323 L73.9415,92.8323 C74.5445,92.8323 74.8505,92.5352 74.8505,91.9502 L74.8505,88.7552 L78.4235,88.7552 L78.4235,88.1072 L74.8505,88.1072 L74.8505,85.6592 L77.7935,85.6592 L77.7935,85.0293 L71.0345,85.0293 M80.3675,92.8323 C80.8895,92.8323 81.1505,92.5622 81.1505,92.0222 L81.1505,89.4392 C81.4745,89.2862 81.7985,89.1243 82.1225,88.9443 L82.1225,88.3142 C81.8075,88.4942 81.4835,88.6562 81.1505,88.8183 L81.1505,86.9553 L82.1045,86.9553 L82.1045,86.3343 L81.1505,86.3343 L81.1505,84.6872 L80.5205,84.6872 L80.5205,86.3343 L79.4315,86.3343 L79.4315,86.9553 L80.5205,86.9553 L80.5205,89.0792 C80.1065,89.2322 79.6925,89.3672 79.2605,89.4753 L79.4225,90.1143 C79.8005,89.9883 80.1605,89.8532 80.5205,89.7093 L80.5205,91.8603 C80.5205,92.1302 80.3945,92.2653 80.1515,92.2653 C79.9355,92.2653 79.7105,92.2473 79.4765,92.2203 L79.6115,92.8323 L80.3675,92.8323 M82.4285,85.9833 L82.4285,86.6042 L84.5885,86.6042 L84.5885,88.0713 L82.5995,88.0713 L82.5995,88.6833 L83.0765,88.6833 C83.3285,89.6103 83.8235,90.4382 84.5795,91.1762 C83.9225,91.6892 83.1125,92.1032 82.1585,92.4183 L82.4645,92.9583 C83.4725,92.5983 84.3275,92.1393 85.0295,91.5813 C85.6415,92.0853 86.4065,92.5443 87.3065,92.9402 L87.6485,92.4003 C86.7935,92.0492 86.0645,91.6442 85.4705,91.1852 C86.1995,90.4833 86.7215,89.6373 87.0365,88.6472 L87.0365,88.0713 L85.2185,88.0713 L85.2185,86.6042 L87.3875,86.6042 L87.3875,85.9833 L85.2185,85.9833 L85.2185,84.7052 L84.5885,84.7052 L84.5885,85.9833 L82.4285,85.9833 M83.6795,88.6833 L86.3885,88.6833 C86.0915,89.4932 85.6325,90.1953 85.0115,90.7982 C84.3635,90.1773 83.9135,89.4753 83.6795,88.6833 M88.6295,86.8112 L88.6295,87.4323 L91.4735,87.4323 C90.8345,89.0703 89.7815,90.4112 88.3235,91.4553 L88.6745,92.0312 C90.2765,90.8432 91.4195,89.3043 92.0855,87.4323 L92.1215,87.4323 L92.1215,92.9133 L92.7695,92.9133 L92.7695,87.4323 L92.8055,87.4323 C93.4175,89.1062 94.5155,90.6273 96.0995,91.9772 L96.5315,91.4283 C95.0465,90.2582 94.0115,88.9262 93.4175,87.4323 L96.2705,87.4323 L96.2705,86.8112 L92.7695,86.8112 L92.7695,84.6602 L92.1215,84.6602 L92.1215,86.8112 L88.6295,86.8112 M94.2185,84.6783 L93.7145,84.9932 C94.2365,85.5423 94.6415,86.0462 94.9475,86.5052 L95.4605,86.1363 C95.1725,85.7223 94.7585,85.2363 94.2185,84.6783 Z" style="stroke:none;fill-rule:nonzero;fill:#f2f2f2;fill-opacity:1;"/>
        </g>
    </g>
</svg>
