<?xml version="1.0"?>
<svg version="1.1" xmlns="http://www.w3.org/2000/svg" xmlns:xlink="http://www.w3.org/1999/xlink" width="118" height="118">
    <desc iVinci="yes" version="4.6" gridStep="20" showGrid="no" snapToGrid="no" codePlatform="0"/>
    <g id="Layer1" name="Layer 1" opacity="1">
        <g id="Shape1">
            <desc shapeID="1" type="2" basicInfo-basicType="0" basicInfo-roundedRectRadius="12" basicInfo-polygonSides="6" basicInfo-starPoints="5" bounding="rect(-59,-59,118,118)" text="闲想录" font-familyName="Arial Black" font-pixelSize="35" font-bold="0" font-underline="0" font-alignment="1" strokeStyle="0" markerStart="0" markerEnd="0" shadowEnabled="0" shadowOffsetX="0" shadowOffsetY="2" shadowBlur="4" shadowOpacity="160" blurEnabled="0" blurRadius="4" transform="matrix(1,0,0,1,59,59)" pers-center="0,0" pers-size="0,0" pers-start="0,0" pers-end="0,0" locked="0" mesh="" flag=""/>
            <path id="shapePath1" d="M15.46,55.0156 L15.46,58.3056 L21.375,58.3056 C19.485,61.9456 16.965,64.8856 13.78,67.0906 L15.95,70.5906 C18.47,68.2456 20.64,65.2006 22.495,61.4556 L22.495,74.1956 L25.855,74.1956 L25.855,63.1706 C28.165,65.2706 30.055,67.3006 31.525,69.2606 L33.905,66.8456 C31.735,64.3256 29.04,61.7706 25.855,59.2156 L25.855,58.3056 L32.505,58.3056 L32.505,55.0156 L25.855,55.0156 L25.855,50.0806 L22.495,50.0806 L22.495,55.0156 L15.46,55.0156 M34.395,75.8756 C37.125,75.8756 38.49,74.5106 38.49,71.8506 L38.49,45.2856 L22.005,45.2856 L22.005,48.5056 L35.06,48.5056 L35.06,70.8706 C35.06,72.0606 34.57,72.6906 33.66,72.6906 L30.65,72.5856 L31.56,75.8756 L34.395,75.8756 M9.47499,49.5906 L9.47499,76.1906 L12.905,76.1906 L12.905,49.5906 L9.47499,49.5906 M15.39,43.4306 L12.31,44.8306 C13.64,46.3706 14.83,48.1556 15.95,50.1506 L18.925,48.6106 C17.875,46.7206 16.72,44.9706 15.39,43.4306 M58.3,44.8306 L58.3,63.1356 L72.825,63.1356 L72.825,44.8306 L58.3,44.8306 M69.29,59.9856 L61.87,59.9856 L61.87,57.9206 L69.29,57.9206 L69.29,59.9856 M61.87,54.9806 L61.87,53.0206 L69.29,53.0206 L69.29,54.9806 L61.87,54.9806 M61.87,50.0806 L61.87,48.0506 L69.29,48.0506 L69.29,50.0806 L61.87,50.0806 M52.385,55.3306 C53.26,56.2406 54.31,57.4306 55.5,58.8656 L57.565,55.7856 C55.815,54.4206 54.1,53.1956 52.385,52.1106 L52.385,51.0606 L56.515,51.0606 L56.515,47.7006 L52.385,47.7006 L52.385,44.2006 L48.71,44.2006 L48.71,47.7006 L43.355,47.7006 L43.355,51.0606 L48.57,51.0606 C47.1,53.8256 45.105,56.2406 42.655,58.3406 L43.985,61.8056 C45.805,59.8456 47.38,57.7106 48.71,55.4356 L48.71,63.3806 L52.385,63.3806 L52.385,55.3306 M45.945,65.0606 C45.385,67.7556 44.37,70.2756 42.935,72.6556 L46.085,74.6506 C47.555,72.1656 48.71,69.2256 49.55,65.8656 L45.945,65.0606 M64.075,75.4206 C65.44,75.4206 66.455,75.1406 67.12,74.6156 C67.855,74.0556 68.345,72.2356 68.625,69.2256 L65.16,68.0356 C65.055,69.8906 64.845,71.0106 64.565,71.3606 C64.285,71.7106 63.935,71.8856 63.445,71.8856 L56.13,71.8856 C55.22,71.8856 54.765,71.4656 54.765,70.6256 L54.765,64.7456 L51.055,64.7456 L51.055,71.3956 C51.055,74.0556 52.35,75.4206 55.01,75.4206 L64.075,75.4206 M59.35,63.8706 L56.515,65.6556 C57.985,67.3356 59.175,68.8756 60.085,70.2756 L62.99,68.2456 C62.15,67.0206 60.925,65.5506 59.35,63.8706 M70.2,63.9406 L67.225,65.7956 C69.36,68.7356 71.075,71.3606 72.335,73.7406 L75.45,71.5706 C74.225,69.4006 72.475,66.8456 70.2,63.9406 M82.38,44.7956 L82.38,48.0856 L99.53,48.0856 L99.53,50.5356 L83.57,50.5356 L83.57,53.6856 L99.53,53.6856 L99.53,56.1006 L78.88,56.1006 L78.88,59.4256 L91.97,59.4256 L91.97,63.2756 C88.12,66.5656 83.605,69.3656 78.355,71.7456 L79.825,75.1406 C84.48,72.7256 88.54,70.0306 91.97,67.0206 L91.97,71.6056 C91.97,72.5156 91.69,73.0056 91.165,73.0056 C89.975,73.0056 88.75,72.9006 87.49,72.7606 L88.295,76.1906 L92.39,76.1906 C94.525,76.1906 95.61,74.9306 95.61,72.4806 L95.61,66.8806 C98.62,70.1356 102.575,72.9006 107.475,75.2106 L109.33,71.9906 C105.9,70.5206 102.89,68.8756 100.3,66.9856 C102.61,65.7256 104.675,63.9406 106.495,61.7006 L103.73,59.4256 L109.155,59.4256 L109.155,56.1006 L103.24,56.1006 L103.24,44.7956 L82.38,44.7956 M83.255,59.9506 L80.84,62.2606 C83.08,63.8006 84.795,65.2006 86.02,66.5306 L88.4,64.1506 C87,62.7506 85.285,61.3506 83.255,59.9506 M103.66,59.4256 C102.015,61.8056 100.055,63.6606 97.815,64.9906 C97.01,64.2906 96.275,63.5906 95.61,62.8556 L95.61,59.4256 L103.66,59.4256 Z" style="stroke:none;fill-rule:nonzero;fill:#ffffff;fill-opacity:1;"/>
        </g>
    </g>
</svg>
