<?xml version="1.0"?>
<svg version="1.1" xmlns="http://www.w3.org/2000/svg" xmlns:xlink="http://www.w3.org/1999/xlink" width="118" height="118">
    <desc iVinci="yes" version="4.6" gridStep="20" showGrid="no" snapToGrid="no" codePlatform="0"/>
    <g id="Layer1" name="Layer 1" opacity="1">
        <g id="Shape1">
            <desc shapeID="1" type="2" basicInfo-basicType="0" basicInfo-roundedRectRadius="12" basicInfo-polygonSides="6" basicInfo-starPoints="5" bounding="rect(-59,-59,118,118)" text="闲想录" font-familyName="Arial Black" font-pixelSize="33" font-bold="0" font-underline="0" font-alignment="1" strokeStyle="0" markerStart="0" markerEnd="0" shadowEnabled="0" shadowOffsetX="0" shadowOffsetY="2" shadowBlur="4" shadowOpacity="160" blurEnabled="0" blurRadius="4" transform="matrix(1,0,0,1,58.6205,58.6665)" pers-center="0,0" pers-size="0,0" pers-start="0,0" pers-end="0,0" locked="0" mesh="" flag=""/>
            <path id="shapePath1" d="M17.5685,54.479 L17.5685,57.581 L23.1455,57.581 C21.3635,61.013 18.9875,63.785 15.9845,65.864 L18.0305,69.164 C20.4065,66.953 22.4525,64.082 24.2015,60.551 L24.2015,72.563 L27.3695,72.563 L27.3695,62.168 C29.5475,64.148 31.3295,66.062 32.7155,67.91 L34.9595,65.633 C32.9135,63.257 30.3725,60.848 27.3695,58.439 L27.3695,57.581 L33.6395,57.581 L33.6395,54.479 L27.3695,54.479 L27.3695,49.826 L24.2015,49.826 L24.2015,54.479 L17.5685,54.479 M35.4215,74.147 C37.9955,74.147 39.2825,72.86 39.2825,70.352 L39.2825,45.305 L23.7395,45.305 L23.7395,48.341 L36.0485,48.341 L36.0485,69.428 C36.0485,70.55 35.5865,71.144 34.7285,71.144 L31.8905,71.045 L32.7485,74.147 L35.4215,74.147 M11.9255,49.364 L11.9255,74.444 L15.1595,74.444 L15.1595,49.364 L11.9255,49.364 M17.5025,43.556 L14.5985,44.876 C15.8525,46.328 16.9745,48.011 18.0305,49.892 L20.8355,48.44 C19.8455,46.658 18.7565,45.008 17.5025,43.556 M57.9605,44.876 L57.9605,62.135 L71.6555,62.135 L71.6555,44.876 L57.9605,44.876 M68.3225,59.165 L61.3265,59.165 L61.3265,57.218 L68.3225,57.218 L68.3225,59.165 M61.3265,54.446 L61.3265,52.598 L68.3225,52.598 L68.3225,54.446 L61.3265,54.446 M61.3265,49.826 L61.3265,47.912 L68.3225,47.912 L68.3225,49.826 L61.3265,49.826 M52.3835,54.776 C53.2085,55.634 54.1985,56.756 55.3205,58.109 L57.2675,55.205 C55.6175,53.918 54.0005,52.763 52.3835,51.74 L52.3835,50.75 L56.2775,50.75 L56.2775,47.582 L52.3835,47.582 L52.3835,44.282 L48.9185,44.282 L48.9185,47.582 L43.8695,47.582 L43.8695,50.75 L48.7865,50.75 C47.4005,53.357 45.5195,55.634 43.2095,57.614 L44.4635,60.881 C46.1795,59.033 47.6645,57.02 48.9185,54.875 L48.9185,62.366 L52.3835,62.366 L52.3835,54.776 M46.3115,63.95 C45.7835,66.491 44.8265,68.867 43.4735,71.111 L46.4435,72.992 C47.8295,70.649 48.9185,67.877 49.7105,64.709 L46.3115,63.95 M63.4055,73.718 C64.6925,73.718 65.6495,73.454 66.2765,72.959 C66.9695,72.431 67.4315,70.715 67.6955,67.877 L64.4285,66.755 C64.3295,68.504 64.1315,69.56 63.8675,69.89 C63.6035,70.22 63.2735,70.385 62.8115,70.385 L55.9145,70.385 C55.0565,70.385 54.6275,69.989 54.6275,69.197 L54.6275,63.653 L51.1295,63.653 L51.1295,69.923 C51.1295,72.431 52.3505,73.718 54.8585,73.718 L63.4055,73.718 M58.9505,62.828 L56.2775,64.511 C57.6635,66.095 58.7855,67.547 59.6435,68.867 L62.3825,66.953 C61.5905,65.798 60.4355,64.412 58.9505,62.828 M69.1805,62.894 L66.3755,64.643 C68.3885,67.415 70.0055,69.89 71.1935,72.134 L74.1305,70.088 C72.9755,68.042 71.3255,65.633 69.1805,62.894 M80.6645,44.843 L80.6645,47.945 L96.8345,47.945 L96.8345,50.255 L81.7865,50.255 L81.7865,53.225 L96.8345,53.225 L96.8345,55.502 L77.3645,55.502 L77.3645,58.637 L89.7065,58.637 L89.7065,62.267 C86.0765,65.369 81.8195,68.009 76.8695,70.253 L78.2555,73.454 C82.6445,71.177 86.4725,68.636 89.7065,65.798 L89.7065,70.121 C89.7065,70.979 89.4425,71.441 88.9475,71.441 C87.8255,71.441 86.6705,71.342 85.4825,71.21 L86.2415,74.444 L90.1025,74.444 C92.1155,74.444 93.1385,73.256 93.1385,70.946 L93.1385,65.666 C95.9765,68.735 99.7055,71.342 104.326,73.52 L106.075,70.484 C102.84,69.098 100.003,67.547 97.5605,65.765 C99.7385,64.577 101.686,62.894 103.402,60.782 L100.795,58.637 L105.91,58.637 L105.91,55.502 L100.333,55.502 L100.333,44.843 L80.6645,44.843 M81.4895,59.132 L79.2125,61.31 C81.3245,62.762 82.9415,64.082 84.0965,65.336 L86.3405,63.092 C85.0205,61.772 83.4035,60.452 81.4895,59.132 M100.729,58.637 C99.1775,60.881 97.3295,62.63 95.2175,63.884 C94.4585,63.224 93.7655,62.564 93.1385,61.871 L93.1385,58.637 L100.729,58.637 Z" style="stroke:none;fill-rule:nonzero;fill:#ffffff;fill-opacity:1;"/>
        </g>
        <g id="Shape2">
            <desc shapeID="2" type="2" basicInfo-basicType="0" basicInfo-roundedRectRadius="12" basicInfo-polygonSides="6" basicInfo-starPoints="5" bounding="rect(-53.5,-6,107,12)" text="源于技术不止于技术" font-familyName="Apple Braille" font-pixelSize="10" font-bold="0" font-underline="0" font-alignment="1" strokeStyle="0" markerStart="0" markerEnd="0" shadowEnabled="0" shadowOffsetX="0" shadowOffsetY="2" shadowBlur="4" shadowOpacity="160" blurEnabled="0" blurRadius="4" transform="matrix(1,0,0,1,56.825,84.89)" pers-center="0,0" pers-size="0,0" pers-start="0,0" pers-end="0,0" locked="0" mesh="" flag=""/>
            <path id="shapePath2" d="M12.975,80.5137 L12.485,80.9837 C13.245,81.5338 13.845,82.0537 14.285,82.5338 L14.775,82.0437 C14.285,81.5437 13.685,81.0338 12.975,80.5137 M12.795,82.9638 L12.305,83.4337 C13.025,83.9638 13.575,84.4638 13.975,84.9337 L14.465,84.4437 C14.015,83.9538 13.455,83.4638 12.795,82.9638 M13.955,85.6637 C13.525,86.8538 13.015,88.0137 12.415,89.1537 L13.085,89.4538 C13.635,88.3438 14.135,87.1637 14.575,85.9037 L13.955,85.6637 M16.635,82.3037 L16.635,85.8138 L18.345,85.8138 L18.345,88.4737 C18.345,88.7237 18.225,88.8538 18.005,88.8538 C17.765,88.8538 17.515,88.8337 17.255,88.8037 L17.405,89.4538 L18.245,89.4538 C18.765,89.4538 19.035,89.1837 19.035,88.6438 L19.035,85.8138 L20.695,85.8138 L20.695,82.3037 L18.745,82.3037 C18.855,82.0037 18.945,81.6937 19.015,81.3637 L21.225,81.3637 L21.225,80.7138 L15.225,80.7138 L15.225,84.2738 C15.195,86.2937 14.865,87.8637 14.245,88.9938 L14.785,89.4737 C15.505,88.1738 15.885,86.4337 15.925,84.2738 L15.925,81.3637 L18.335,81.3637 C18.265,81.6837 18.175,81.9938 18.055,82.3037 L16.635,82.3037 M20.055,85.2337 L17.275,85.2337 L17.275,84.3337 L20.055,84.3337 L20.055,85.2337 M17.275,83.7937 L17.275,82.8737 L20.055,82.8737 L20.055,83.7937 L17.275,83.7937 M16.885,86.5238 C16.675,87.2838 16.335,87.9737 15.865,88.6038 L16.445,88.9638 C16.905,88.3138 17.265,87.5437 17.525,86.6637 L16.885,86.5238 M20.285,86.4737 L19.685,86.6837 C20.065,87.3438 20.425,88.0938 20.745,88.9538 L21.355,88.6837 C21.055,87.9037 20.695,87.1637 20.285,86.4737 M23.035,80.7038 L23.035,81.4037 L26.545,81.4037 L26.545,84.1237 L22.405,84.1237 L22.405,84.8438 L26.545,84.8438 L26.545,88.2138 C26.545,88.5537 26.365,88.7237 26.015,88.7237 C25.555,88.7237 25.065,88.7038 24.555,88.6837 L24.705,89.3737 L26.265,89.3737 C26.935,89.3737 27.275,89.0437 27.275,88.3938 L27.275,84.8438 L31.245,84.8438 L31.245,84.1237 L27.275,84.1237 L27.275,81.4037 L30.545,81.4037 L30.545,80.7038 L23.035,80.7038 M33.405,89.3737 C33.985,89.3737 34.275,89.0737 34.275,88.4737 L34.275,85.6038 C34.635,85.4337 34.995,85.2537 35.355,85.0537 L35.355,84.3538 C35.005,84.5537 34.645,84.7337 34.275,84.9137 L34.275,82.8438 L35.335,82.8438 L35.335,82.1537 L34.275,82.1537 L34.275,80.3237 L33.575,80.3237 L33.575,82.1537 L32.365,82.1537 L32.365,82.8438 L33.575,82.8438 L33.575,85.2038 C33.115,85.3737 32.655,85.5238 32.175,85.6438 L32.355,86.3538 C32.775,86.2138 33.175,86.0638 33.575,85.9037 L33.575,88.2937 C33.575,88.5938 33.435,88.7438 33.165,88.7438 C32.925,88.7438 32.675,88.7237 32.415,88.6937 L32.565,89.3737 L33.405,89.3737 M35.695,81.7637 L35.695,82.4538 L38.095,82.4538 L38.095,84.0837 L35.885,84.0837 L35.885,84.7637 L36.415,84.7637 C36.695,85.7937 37.245,86.7138 38.085,87.5338 C37.355,88.1038 36.455,88.5638 35.395,88.9137 L35.735,89.5137 C36.855,89.1137 37.805,88.6038 38.585,87.9837 C39.265,88.5437 40.115,89.0537 41.115,89.4938 L41.495,88.8938 C40.545,88.5037 39.735,88.0537 39.075,87.5437 C39.885,86.7637 40.465,85.8237 40.815,84.7237 L40.815,84.0837 L38.795,84.0837 L38.795,82.4538 L41.205,82.4538 L41.205,81.7637 L38.795,81.7637 L38.795,80.3438 L38.095,80.3438 L38.095,81.7637 L35.695,81.7637 M37.085,84.7637 L40.095,84.7637 C39.765,85.6637 39.255,86.4437 38.565,87.1137 C37.845,86.4238 37.345,85.6438 37.085,84.7637 M42.585,82.6837 L42.585,83.3737 L45.745,83.3737 C45.035,85.1937 43.865,86.6837 42.245,87.8438 L42.635,88.4837 C44.415,87.1637 45.685,85.4538 46.425,83.3737 L46.465,83.3737 L46.465,89.4638 L47.185,89.4638 L47.185,83.3737 L47.225,83.3737 C47.905,85.2337 49.125,86.9238 50.885,88.4238 L51.365,87.8138 C49.715,86.5137 48.565,85.0338 47.905,83.3737 L51.075,83.3737 L51.075,82.6837 L47.185,82.6837 L47.185,80.2937 L46.465,80.2937 L46.465,82.6837 L42.585,82.6837 M48.795,80.3138 L48.235,80.6637 C48.815,81.2738 49.265,81.8337 49.605,82.3438 L50.175,81.9337 C49.855,81.4737 49.395,80.9337 48.795,80.3138 M52.575,80.8337 L52.575,81.5437 L57.015,81.5437 C56.135,83.4037 54.555,84.9837 52.295,86.2838 L52.765,86.9137 C54.285,86.0037 55.515,84.9638 56.455,83.7937 L56.455,89.5037 L57.195,89.5037 L57.195,82.7337 C57.425,82.3538 57.635,81.9538 57.815,81.5437 L61.075,81.5437 L61.075,80.8337 L52.575,80.8337 M58.455,83.5238 L57.935,84.0137 C59.145,85.0037 60.095,85.9337 60.795,86.8138 L61.345,86.2537 C60.565,85.3438 59.605,84.4337 58.455,83.5238 M66.895,80.3637 L66.895,88.3538 L64.805,88.3538 L64.805,82.1137 L64.085,82.1137 L64.085,88.3538 L62.385,88.3538 L62.385,89.0537 L71.265,89.0537 L71.265,88.3538 L67.635,88.3538 L67.635,84.3138 L70.715,84.3138 L70.715,83.6137 L67.635,83.6137 L67.635,80.3637 L66.895,80.3637 M73.035,80.7038 L73.035,81.4037 L76.545,81.4037 L76.545,84.1237 L72.405,84.1237 L72.405,84.8438 L76.545,84.8438 L76.545,88.2138 C76.545,88.5537 76.365,88.7237 76.015,88.7237 C75.555,88.7237 75.065,88.7038 74.555,88.6837 L74.705,89.3737 L76.265,89.3737 C76.935,89.3737 77.275,89.0437 77.275,88.3938 L77.275,84.8438 L81.245,84.8438 L81.245,84.1237 L77.275,84.1237 L77.275,81.4037 L80.545,81.4037 L80.545,80.7038 L73.035,80.7038 M83.405,89.3737 C83.985,89.3737 84.275,89.0737 84.275,88.4737 L84.275,85.6038 C84.635,85.4337 84.995,85.2537 85.355,85.0537 L85.355,84.3538 C85.005,84.5537 84.645,84.7337 84.275,84.9137 L84.275,82.8438 L85.335,82.8438 L85.335,82.1537 L84.275,82.1537 L84.275,80.3237 L83.575,80.3237 L83.575,82.1537 L82.365,82.1537 L82.365,82.8438 L83.575,82.8438 L83.575,85.2038 C83.115,85.3737 82.655,85.5238 82.175,85.6438 L82.355,86.3538 C82.775,86.2138 83.175,86.0638 83.575,85.9037 L83.575,88.2937 C83.575,88.5938 83.435,88.7438 83.165,88.7438 C82.925,88.7438 82.675,88.7237 82.415,88.6937 L82.565,89.3737 L83.405,89.3737 M85.695,81.7637 L85.695,82.4538 L88.095,82.4538 L88.095,84.0837 L85.885,84.0837 L85.885,84.7637 L86.415,84.7637 C86.695,85.7937 87.245,86.7138 88.085,87.5338 C87.355,88.1038 86.455,88.5638 85.395,88.9137 L85.735,89.5137 C86.855,89.1137 87.805,88.6038 88.585,87.9837 C89.265,88.5437 90.115,89.0537 91.115,89.4938 L91.495,88.8938 C90.545,88.5037 89.735,88.0537 89.075,87.5437 C89.885,86.7637 90.465,85.8237 90.815,84.7237 L90.815,84.0837 L88.795,84.0837 L88.795,82.4538 L91.205,82.4538 L91.205,81.7637 L88.795,81.7637 L88.795,80.3438 L88.095,80.3438 L88.095,81.7637 L85.695,81.7637 M87.085,84.7637 L90.095,84.7637 C89.765,85.6637 89.255,86.4437 88.565,87.1137 C87.845,86.4238 87.345,85.6438 87.085,84.7637 M92.585,82.6837 L92.585,83.3737 L95.745,83.3737 C95.035,85.1937 93.865,86.6837 92.245,87.8438 L92.635,88.4837 C94.415,87.1637 95.685,85.4538 96.425,83.3737 L96.465,83.3737 L96.465,89.4638 L97.185,89.4638 L97.185,83.3737 L97.225,83.3737 C97.905,85.2337 99.125,86.9238 100.885,88.4238 L101.365,87.8138 C99.715,86.5137 98.565,85.0338 97.905,83.3737 L101.075,83.3737 L101.075,82.6837 L97.185,82.6837 L97.185,80.2937 L96.465,80.2937 L96.465,82.6837 L92.585,82.6837 M98.795,80.3138 L98.235,80.6637 C98.815,81.2738 99.265,81.8337 99.605,82.3438 L100.175,81.9337 C99.855,81.4737 99.395,80.9337 98.795,80.3138 Z" style="stroke:none;fill-rule:nonzero;fill:#ffffff;fill-opacity:1;"/>
        </g>
    </g>
</svg>
